<?xml version="1.0" encoding="us-ascii" standalone="no"?><svg xmlns="http://www.w3.org/2000/svg" xmlns:xlink="http://www.w3.org/1999/xlink" contentStyleType="text/css" height="866px" preserveAspectRatio="none" style="width:2960px;height:866px;background:#FFFFFF;" version="1.1" viewBox="0 0 2960 866" width="2960px" zoomAndPan="magnify"><defs/><g><text fill="#000000" font-family="sans-serif" font-size="14" font-weight="bold" lengthAdjust="spacing" textLength="117" x="1417.75" y="40.6357">SpringBoot&#21551;&#21160;</text><line style="stroke:#181818;stroke-width:0.5;stroke-dasharray:5.0,5.0;" x1="71" x2="71" y1="86.2344" y2="831.4219"/><line style="stroke:#181818;stroke-width:0.5;stroke-dasharray:5.0,5.0;" x1="246" x2="246" y1="86.2344" y2="831.4219"/><line style="stroke:#181818;stroke-width:0.5;stroke-dasharray:5.0,5.0;" x1="463" x2="463" y1="86.2344" y2="831.4219"/><line style="stroke:#181818;stroke-width:0.5;stroke-dasharray:5.0,5.0;" x1="682" x2="682" y1="86.2344" y2="831.4219"/><line style="stroke:#181818;stroke-width:0.5;stroke-dasharray:5.0,5.0;" x1="894" x2="894" y1="86.2344" y2="831.4219"/><line style="stroke:#181818;stroke-width:0.5;stroke-dasharray:5.0,5.0;" x1="1105" x2="1105" y1="86.2344" y2="831.4219"/><line style="stroke:#181818;stroke-width:0.5;stroke-dasharray:5.0,5.0;" x1="1331" x2="1331" y1="86.2344" y2="831.4219"/><line style="stroke:#181818;stroke-width:0.5;stroke-dasharray:5.0,5.0;" x1="1549.5" x2="1549.5" y1="86.2344" y2="831.4219"/><line style="stroke:#181818;stroke-width:0.5;stroke-dasharray:5.0,5.0;" x1="1706.5" x2="1706.5" y1="86.2344" y2="831.4219"/><line style="stroke:#181818;stroke-width:0.5;stroke-dasharray:5.0,5.0;" x1="1903.5" x2="1903.5" y1="86.2344" y2="831.4219"/><line style="stroke:#181818;stroke-width:0.5;stroke-dasharray:5.0,5.0;" x1="2113.5" x2="2113.5" y1="86.2344" y2="831.4219"/><line style="stroke:#181818;stroke-width:0.5;stroke-dasharray:5.0,5.0;" x1="2292.5" x2="2292.5" y1="86.2344" y2="831.4219"/><line style="stroke:#181818;stroke-width:0.5;stroke-dasharray:5.0,5.0;" x1="2476.5" x2="2476.5" y1="86.2344" y2="831.4219"/><line style="stroke:#181818;stroke-width:0.5;stroke-dasharray:5.0,5.0;" x1="2669.5" x2="2669.5" y1="86.2344" y2="831.4219"/><line style="stroke:#181818;stroke-width:0.5;stroke-dasharray:5.0,5.0;" x1="2830.5" x2="2830.5" y1="86.2344" y2="831.4219"/><line style="stroke:#181818;stroke-width:0.5;stroke-dasharray:5.0,5.0;" x1="2923.5" x2="2923.5" y1="86.2344" y2="831.4219"/><rect fill="#E2E2F0" height="30.2969" rx="2.5" ry="2.5" style="stroke:#181818;stroke-width:0.5;" width="133" x="5" y="54.9375"/><text fill="#000000" font-family="sans-serif" font-size="14" lengthAdjust="spacing" textLength="119" x="12" y="74.9326">SpringApplication</text><rect fill="#E2E2F0" height="30.2969" rx="2.5" ry="2.5" style="stroke:#181818;stroke-width:0.5;" width="133" x="5" y="830.4219"/><text fill="#000000" font-family="sans-serif" font-size="14" lengthAdjust="spacing" textLength="119" x="12" y="850.417">SpringApplication</text><rect fill="#FFA500" height="30.2969" rx="2.5" ry="2.5" style="stroke:#181818;stroke-width:0.5;" width="197" x="148" y="54.9375"/><text fill="#000000" font-family="sans-serif" font-size="14" lengthAdjust="spacing" textLength="183" x="155" y="74.9326">BootstrapRegistryInitializer</text><rect fill="#FFA500" height="30.2969" rx="2.5" ry="2.5" style="stroke:#181818;stroke-width:0.5;" width="197" x="148" y="830.4219"/><text fill="#000000" font-family="sans-serif" font-size="14" lengthAdjust="spacing" textLength="183" x="155" y="850.417">BootstrapRegistryInitializer</text><rect fill="#FFA500" height="30.2969" rx="2.5" ry="2.5" style="stroke:#181818;stroke-width:0.5;" width="216" x="355" y="54.9375"/><text fill="#000000" font-family="sans-serif" font-size="14" lengthAdjust="spacing" textLength="202" x="362" y="74.9326">SpringApplicationRunListener</text><rect fill="#FFA500" height="30.2969" rx="2.5" ry="2.5" style="stroke:#181818;stroke-width:0.5;" width="216" x="355" y="830.4219"/><text fill="#000000" font-family="sans-serif" font-size="14" lengthAdjust="spacing" textLength="202" x="362" y="850.417">SpringApplicationRunListener</text><rect fill="#FFA500" height="30.2969" rx="2.5" ry="2.5" style="stroke:#181818;stroke-width:0.5;" width="202" x="581" y="54.9375"/><text fill="#000000" font-family="sans-serif" font-size="14" lengthAdjust="spacing" textLength="188" x="588" y="74.9326">EnvironmentPostProcessor</text><rect fill="#FFA500" height="30.2969" rx="2.5" ry="2.5" style="stroke:#181818;stroke-width:0.5;" width="202" x="581" y="830.4219"/><text fill="#000000" font-family="sans-serif" font-size="14" lengthAdjust="spacing" textLength="188" x="588" y="850.417">EnvironmentPostProcessor</text><rect fill="#FFA500" height="30.2969" rx="2.5" ry="2.5" style="stroke:#181818;stroke-width:0.5;" width="202" x="793" y="54.9375"/><text fill="#000000" font-family="sans-serif" font-size="14" lengthAdjust="spacing" textLength="188" x="800" y="74.9326">ApplicationContextInitializer</text><rect fill="#FFA500" height="30.2969" rx="2.5" ry="2.5" style="stroke:#181818;stroke-width:0.5;" width="202" x="793" y="830.4219"/><text fill="#000000" font-family="sans-serif" font-size="14" lengthAdjust="spacing" textLength="188" x="800" y="850.417">ApplicationContextInitializer</text><rect fill="#FFA500" height="30.2969" rx="2.5" ry="2.5" style="stroke:#181818;stroke-width:0.5;" width="201" x="1005" y="54.9375"/><text fill="#000000" font-family="sans-serif" font-size="14" lengthAdjust="spacing" textLength="187" x="1012" y="74.9326">BeanFactoryPostProcessor</text><rect fill="#FFA500" height="30.2969" rx="2.5" ry="2.5" style="stroke:#181818;stroke-width:0.5;" width="201" x="1005" y="830.4219"/><text fill="#000000" font-family="sans-serif" font-size="14" lengthAdjust="spacing" textLength="187" x="1012" y="850.417">BeanFactoryPostProcessor</text><rect fill="#E2E2F0" height="30.2969" rx="2.5" ry="2.5" style="stroke:#181818;stroke-width:0.5;" width="230" x="1216" y="54.9375"/><text fill="#000000" font-family="sans-serif" font-size="14" lengthAdjust="spacing" textLength="216" x="1223" y="74.9326">ConfigurableApplicationContext</text><rect fill="#E2E2F0" height="30.2969" rx="2.5" ry="2.5" style="stroke:#181818;stroke-width:0.5;" width="230" x="1216" y="830.4219"/><text fill="#000000" font-family="sans-serif" font-size="14" lengthAdjust="spacing" textLength="216" x="1223" y="850.417">ConfigurableApplicationContext</text><rect fill="#FFA500" height="30.2969" rx="2.5" ry="2.5" style="stroke:#181818;stroke-width:0.5;" width="151" x="1474.5" y="54.9375"/><text fill="#000000" font-family="sans-serif" font-size="14" lengthAdjust="spacing" textLength="137" x="1481.5" y="74.9326">BeanPostProcessor</text><rect fill="#FFA500" height="30.2969" rx="2.5" ry="2.5" style="stroke:#181818;stroke-width:0.5;" width="151" x="1474.5" y="830.4219"/><text fill="#000000" font-family="sans-serif" font-size="14" lengthAdjust="spacing" textLength="137" x="1481.5" y="850.417">BeanPostProcessor</text><rect fill="#FFA500" height="30.2969" rx="2.5" ry="2.5" style="stroke:#181818;stroke-width:0.5;" width="143" x="1635.5" y="54.9375"/><text fill="#000000" font-family="sans-serif" font-size="14" lengthAdjust="spacing" textLength="129" x="1642.5" y="74.9326">EnvironmentAware</text><rect fill="#FFA500" height="30.2969" rx="2.5" ry="2.5" style="stroke:#181818;stroke-width:0.5;" width="143" x="1635.5" y="830.4219"/><text fill="#000000" font-family="sans-serif" font-size="14" lengthAdjust="spacing" textLength="129" x="1642.5" y="850.417">EnvironmentAware</text><rect fill="#FFA500" height="30.2969" rx="2.5" ry="2.5" style="stroke:#181818;stroke-width:0.5;" width="230" x="1788.5" y="54.9375"/><text fill="#000000" font-family="sans-serif" font-size="14" lengthAdjust="spacing" textLength="216" x="1795.5" y="74.9326">EmbeddedValueResolverAware</text><rect fill="#FFA500" height="30.2969" rx="2.5" ry="2.5" style="stroke:#181818;stroke-width:0.5;" width="230" x="1788.5" y="830.4219"/><text fill="#000000" font-family="sans-serif" font-size="14" lengthAdjust="spacing" textLength="216" x="1795.5" y="850.417">EmbeddedValueResolverAware</text><rect fill="#FFA500" height="30.2969" rx="2.5" ry="2.5" style="stroke:#181818;stroke-width:0.5;" width="170" x="2028.5" y="54.9375"/><text fill="#000000" font-family="sans-serif" font-size="14" lengthAdjust="spacing" textLength="156" x="2035.5" y="74.9326">ResourceLoaderAware</text><rect fill="#FFA500" height="30.2969" rx="2.5" ry="2.5" style="stroke:#181818;stroke-width:0.5;" width="170" x="2028.5" y="830.4219"/><text fill="#000000" font-family="sans-serif" font-size="14" lengthAdjust="spacing" textLength="156" x="2035.5" y="850.417">ResourceLoaderAware</text><rect fill="#FFA500" height="30.2969" rx="2.5" ry="2.5" style="stroke:#181818;stroke-width:0.5;" width="168" x="2208.5" y="54.9375"/><text fill="#000000" font-family="sans-serif" font-size="14" lengthAdjust="spacing" textLength="154" x="2215.5" y="74.9326">MessageSourceAware</text><rect fill="#FFA500" height="30.2969" rx="2.5" ry="2.5" style="stroke:#181818;stroke-width:0.5;" width="168" x="2208.5" y="830.4219"/><text fill="#000000" font-family="sans-serif" font-size="14" lengthAdjust="spacing" textLength="154" x="2215.5" y="850.417">MessageSourceAware</text><rect fill="#FFA500" height="30.2969" rx="2.5" ry="2.5" style="stroke:#181818;stroke-width:0.5;" width="181" x="2386.5" y="54.9375"/><text fill="#000000" font-family="sans-serif" font-size="14" lengthAdjust="spacing" textLength="167" x="2393.5" y="74.9326">ApplicationStartupAware</text><rect fill="#FFA500" height="30.2969" rx="2.5" ry="2.5" style="stroke:#181818;stroke-width:0.5;" width="181" x="2386.5" y="830.4219"/><text fill="#000000" font-family="sans-serif" font-size="14" lengthAdjust="spacing" textLength="167" x="2393.5" y="850.417">ApplicationStartupAware</text><rect fill="#FFA500" height="30.2969" rx="2.5" ry="2.5" style="stroke:#181818;stroke-width:0.5;" width="185" x="2577.5" y="54.9375"/><text fill="#000000" font-family="sans-serif" font-size="14" lengthAdjust="spacing" textLength="171" x="2584.5" y="74.9326">ApplicationContextAware</text><rect fill="#FFA500" height="30.2969" rx="2.5" ry="2.5" style="stroke:#181818;stroke-width:0.5;" width="185" x="2577.5" y="830.4219"/><text fill="#000000" font-family="sans-serif" font-size="14" lengthAdjust="spacing" textLength="171" x="2584.5" y="850.417">ApplicationContextAware</text><rect fill="#FFA500" height="30.2969" rx="2.5" ry="2.5" style="stroke:#181818;stroke-width:0.5;" width="116" x="2772.5" y="54.9375"/><text fill="#000000" font-family="sans-serif" font-size="14" lengthAdjust="spacing" textLength="102" x="2779.5" y="74.9326">InitializingBean</text><rect fill="#FFA500" height="30.2969" rx="2.5" ry="2.5" style="stroke:#181818;stroke-width:0.5;" width="116" x="2772.5" y="830.4219"/><text fill="#000000" font-family="sans-serif" font-size="14" lengthAdjust="spacing" textLength="102" x="2779.5" y="850.417">InitializingBean</text><rect fill="#FFA500" height="30.2969" rx="2.5" ry="2.5" style="stroke:#181818;stroke-width:0.5;" width="50" x="2898.5" y="54.9375"/><text fill="#000000" font-family="sans-serif" font-size="14" lengthAdjust="spacing" textLength="36" x="2905.5" y="74.9326">Bean</text><rect fill="#FFA500" height="30.2969" rx="2.5" ry="2.5" style="stroke:#181818;stroke-width:0.5;" width="50" x="2898.5" y="830.4219"/><text fill="#000000" font-family="sans-serif" font-size="14" lengthAdjust="spacing" textLength="36" x="2905.5" y="850.417">Bean</text><line style="stroke:#181818;stroke-width:1.0;" x1="71.5" x2="113.5" y1="117.3672" y2="117.3672"/><line style="stroke:#181818;stroke-width:1.0;" x1="113.5" x2="113.5" y1="117.3672" y2="130.3672"/><line style="stroke:#181818;stroke-width:1.0;" x1="72.5" x2="113.5" y1="130.3672" y2="130.3672"/><polygon fill="#181818" points="82.5,126.3672,72.5,130.3672,82.5,134.3672,78.5,130.3672" style="stroke:#181818;stroke-width:1.0;"/><text fill="#000000" font-family="sans-serif" font-size="13" lengthAdjust="spacing" textLength="21" x="78.5" y="112.3013">run</text><polygon fill="#181818" points="234.5,155.5,244.5,159.5,234.5,163.5,238.5,159.5" style="stroke:#181818;stroke-width:1.0;"/><line style="stroke:#181818;stroke-width:1.0;" x1="71.5" x2="240.5" y1="159.5" y2="159.5"/><text fill="#000000" font-family="sans-serif" font-size="13" lengthAdjust="spacing" textLength="51" x="78.5" y="154.4341">initialize</text><polygon fill="#181818" points="451,184.6328,461,188.6328,451,192.6328,455,188.6328" style="stroke:#181818;stroke-width:1.0;"/><line style="stroke:#181818;stroke-width:1.0;" x1="71.5" x2="457" y1="188.6328" y2="188.6328"/><text fill="#000000" font-family="sans-serif" font-size="13" lengthAdjust="spacing" textLength="19" x="78.5" y="183.5669">init</text><polygon fill="#181818" points="451,213.7656,461,217.7656,451,221.7656,455,217.7656" style="stroke:#181818;stroke-width:1.0;"/><line style="stroke:#181818;stroke-width:1.0;" x1="71.5" x2="457" y1="217.7656" y2="217.7656"/><text fill="#000000" font-family="sans-serif" font-size="13" lengthAdjust="spacing" textLength="49" x="78.5" y="212.6997">starting</text><polygon fill="#181818" points="670,242.8984,680,246.8984,670,250.8984,674,246.8984" style="stroke:#181818;stroke-width:1.0;"/><line style="stroke:#181818;stroke-width:1.0;" x1="71.5" x2="676" y1="246.8984" y2="246.8984"/><text fill="#000000" font-family="sans-serif" font-size="13" lengthAdjust="spacing" textLength="159" x="78.5" y="241.8325">postProcessEnvironment</text><polygon fill="#181818" points="451,272.0313,461,276.0313,451,280.0313,455,276.0313" style="stroke:#181818;stroke-width:1.0;"/><line style="stroke:#181818;stroke-width:1.0;" x1="71.5" x2="457" y1="276.0313" y2="276.0313"/><text fill="#000000" font-family="sans-serif" font-size="13" lengthAdjust="spacing" textLength="139" x="78.5" y="270.9653">environmentPrepared</text><polygon fill="#181818" points="882,301.1641,892,305.1641,882,309.1641,886,305.1641" style="stroke:#181818;stroke-width:1.0;"/><line style="stroke:#181818;stroke-width:1.0;" x1="71.5" x2="888" y1="305.1641" y2="305.1641"/><text fill="#000000" font-family="sans-serif" font-size="13" lengthAdjust="spacing" textLength="51" x="78.5" y="300.0981">initialize</text><polygon fill="#181818" points="451,330.2969,461,334.2969,451,338.2969,455,334.2969" style="stroke:#181818;stroke-width:1.0;"/><line style="stroke:#181818;stroke-width:1.0;" x1="71.5" x2="457" y1="334.2969" y2="334.2969"/><text fill="#000000" font-family="sans-serif" font-size="13" lengthAdjust="spacing" textLength="106" x="78.5" y="329.231">contextPrepared</text><polygon fill="#181818" points="451,359.4297,461,363.4297,451,367.4297,455,363.4297" style="stroke:#181818;stroke-width:1.0;"/><line style="stroke:#181818;stroke-width:1.0;" x1="71.5" x2="457" y1="363.4297" y2="363.4297"/><text fill="#000000" font-family="sans-serif" font-size="13" lengthAdjust="spacing" textLength="95" x="78.5" y="358.3638">contextLoaded</text><polygon fill="#181818" points="1319,388.5625,1329,392.5625,1319,396.5625,1323,392.5625" style="stroke:#181818;stroke-width:1.0;"/><line style="stroke:#181818;stroke-width:1.0;" x1="71.5" x2="1325" y1="392.5625" y2="392.5625"/><text fill="#000000" font-family="sans-serif" font-size="13" lengthAdjust="spacing" textLength="45" x="78.5" y="387.4966">refresh</text><polygon fill="#181818" points="1093.5,417.6953,1103.5,421.6953,1093.5,425.6953,1097.5,421.6953" style="stroke:#181818;stroke-width:1.0;"/><line style="stroke:#181818;stroke-width:1.0;" x1="71.5" x2="1099.5" y1="421.6953" y2="421.6953"/><text fill="#000000" font-family="sans-serif" font-size="13" lengthAdjust="spacing" textLength="158" x="78.5" y="416.6294">postProcessBeanFactory</text><line style="stroke:#181818;stroke-width:1.0;" x1="1331" x2="1373" y1="450.8281" y2="450.8281"/><line style="stroke:#181818;stroke-width:1.0;" x1="1373" x2="1373" y1="450.8281" y2="463.8281"/><line style="stroke:#181818;stroke-width:1.0;" x1="1332" x2="1373" y1="463.8281" y2="463.8281"/><polygon fill="#181818" points="1342,459.8281,1332,463.8281,1342,467.8281,1338,463.8281" style="stroke:#181818;stroke-width:1.0;"/><text fill="#000000" font-family="sans-serif" font-size="13" lengthAdjust="spacing" textLength="54" x="1338" y="445.7622">getBean</text><polygon fill="#181818" points="1538,488.9609,1548,492.9609,1538,496.9609,1542,492.9609" style="stroke:#181818;stroke-width:1.0;"/><line style="stroke:#181818;stroke-width:1.0;" x1="1331" x2="1544" y1="492.9609" y2="492.9609"/><text fill="#000000" font-family="sans-serif" font-size="13" lengthAdjust="spacing" textLength="195" x="1338" y="487.895">postProcessBeforeInitialization</text><polygon fill="#181818" points="1538,518.0938,1548,522.0938,1538,526.0938,1542,522.0938" style="stroke:#181818;stroke-width:1.0;"/><line style="stroke:#181818;stroke-width:1.0;" x1="1331" x2="1544" y1="522.0938" y2="522.0938"/><text fill="#000000" font-family="sans-serif" font-size="13" lengthAdjust="spacing" textLength="184" x="1338" y="517.0278">postProcessAfterInitialization</text><polygon fill="#181818" points="1695,547.2266,1705,551.2266,1695,555.2266,1699,551.2266" style="stroke:#181818;stroke-width:1.0;"/><line style="stroke:#181818;stroke-width:1.0;" x1="1331" x2="1701" y1="551.2266" y2="551.2266"/><text fill="#000000" font-family="sans-serif" font-size="13" lengthAdjust="spacing" textLength="101" x="1338" y="546.1606">setEnvironment</text><polygon fill="#181818" points="1891.5,576.3594,1901.5,580.3594,1891.5,584.3594,1895.5,580.3594" style="stroke:#181818;stroke-width:1.0;"/><line style="stroke:#181818;stroke-width:1.0;" x1="1331" x2="1897.5" y1="580.3594" y2="580.3594"/><text fill="#000000" font-family="sans-serif" font-size="13" lengthAdjust="spacing" textLength="179" x="1338" y="575.2935">setEmbeddedValueResolver</text><polygon fill="#181818" points="2101.5,605.4922,2111.5,609.4922,2101.5,613.4922,2105.5,609.4922" style="stroke:#181818;stroke-width:1.0;"/><line style="stroke:#181818;stroke-width:1.0;" x1="1331" x2="2107.5" y1="609.4922" y2="609.4922"/><text fill="#000000" font-family="sans-serif" font-size="13" lengthAdjust="spacing" textLength="123" x="1338" y="604.4263">setResourceLoader</text><polygon fill="#181818" points="2280.5,634.625,2290.5,638.625,2280.5,642.625,2284.5,638.625" style="stroke:#181818;stroke-width:1.0;"/><line style="stroke:#181818;stroke-width:1.0;" x1="1331" x2="2286.5" y1="638.625" y2="638.625"/><text fill="#000000" font-family="sans-serif" font-size="13" lengthAdjust="spacing" textLength="122" x="1338" y="633.5591">setMessageSource</text><polygon fill="#181818" points="2465,663.7578,2475,667.7578,2465,671.7578,2469,667.7578" style="stroke:#181818;stroke-width:1.0;"/><line style="stroke:#181818;stroke-width:1.0;" x1="1331" x2="2471" y1="667.7578" y2="667.7578"/><text fill="#000000" font-family="sans-serif" font-size="13" lengthAdjust="spacing" textLength="138" x="1338" y="662.6919">setApplicationStartup</text><polygon fill="#181818" points="2658,692.8906,2668,696.8906,2658,700.8906,2662,696.8906" style="stroke:#181818;stroke-width:1.0;"/><line style="stroke:#181818;stroke-width:1.0;" x1="1331" x2="2664" y1="696.8906" y2="696.8906"/><text fill="#000000" font-family="sans-serif" font-size="13" lengthAdjust="spacing" textLength="140" x="1338" y="691.8247">setApplicationContext</text><polygon fill="#181818" points="2911.5,722.0234,2921.5,726.0234,2911.5,730.0234,2915.5,726.0234" style="stroke:#181818;stroke-width:1.0;"/><line style="stroke:#181818;stroke-width:1.0;" x1="1331" x2="2917.5" y1="726.0234" y2="726.0234"/><text fill="#000000" font-family="sans-serif" font-size="13" lengthAdjust="spacing" textLength="19" x="1338" y="720.9575">init</text><polygon fill="#181818" points="2818.5,751.1563,2828.5,755.1563,2818.5,759.1563,2822.5,755.1563" style="stroke:#181818;stroke-width:1.0;"/><line style="stroke:#181818;stroke-width:1.0;" x1="1331" x2="2824.5" y1="755.1563" y2="755.1563"/><text fill="#000000" font-family="sans-serif" font-size="13" lengthAdjust="spacing" textLength="117" x="1338" y="750.0903">afterPropertiesSet</text><polygon fill="#181818" points="451,780.2891,461,784.2891,451,788.2891,455,784.2891" style="stroke:#181818;stroke-width:1.0;"/><line style="stroke:#181818;stroke-width:1.0;" x1="71.5" x2="457" y1="784.2891" y2="784.2891"/><text fill="#000000" font-family="sans-serif" font-size="13" lengthAdjust="spacing" textLength="46" x="78.5" y="779.2231">started</text><polygon fill="#181818" points="451,809.4219,461,813.4219,451,817.4219,455,813.4219" style="stroke:#181818;stroke-width:1.0;"/><line style="stroke:#181818;stroke-width:1.0;" x1="71.5" x2="457" y1="813.4219" y2="813.4219"/><text fill="#000000" font-family="sans-serif" font-size="13" lengthAdjust="spacing" textLength="48" x="78.5" y="808.356">running</text><text fill="#888888" font-family="sans-serif" font-size="10" lengthAdjust="spacing" textLength="36" x="2916.5" y="14.2822">by LDP</text></g></svg>