<?xml version="1.0" encoding="us-ascii" standalone="no"?><svg xmlns="http://www.w3.org/2000/svg" xmlns:xlink="http://www.w3.org/1999/xlink" contentStyleType="text/css" height="685px" preserveAspectRatio="none" style="width:2120px;height:685px;background:#FFFFFF;" version="1.1" viewBox="0 0 2120 685" width="2120px" zoomAndPan="magnify"><defs/><g><text fill="#000000" font-family="sans-serif" font-size="14" font-weight="bold" lengthAdjust="spacing" textLength="149" x="981.5" y="40.6357">Spring @Value &#35299;&#26512;</text><line style="stroke:#181818;stroke-width:0.5;stroke-dasharray:5.0,5.0;" x1="141" x2="141" y1="86.2344" y2="650.3594"/><line style="stroke:#181818;stroke-width:0.5;stroke-dasharray:5.0,5.0;" x1="435" x2="435" y1="86.2344" y2="650.3594"/><line style="stroke:#181818;stroke-width:0.5;stroke-dasharray:5.0,5.0;" x1="661" x2="661" y1="86.2344" y2="650.3594"/><line style="stroke:#181818;stroke-width:0.5;stroke-dasharray:5.0,5.0;" x1="825" x2="825" y1="86.2344" y2="650.3594"/><line style="stroke:#181818;stroke-width:0.5;stroke-dasharray:5.0,5.0;" x1="1021" x2="1021" y1="86.2344" y2="650.3594"/><line style="stroke:#181818;stroke-width:0.5;stroke-dasharray:5.0,5.0;" x1="1210" x2="1210" y1="86.2344" y2="650.3594"/><line style="stroke:#181818;stroke-width:0.5;stroke-dasharray:5.0,5.0;" x1="1405" x2="1405" y1="86.2344" y2="650.3594"/><line style="stroke:#181818;stroke-width:0.5;stroke-dasharray:5.0,5.0;" x1="1645" x2="1645" y1="86.2344" y2="650.3594"/><line style="stroke:#181818;stroke-width:0.5;stroke-dasharray:5.0,5.0;" x1="1878" x2="1878" y1="86.2344" y2="650.3594"/><line style="stroke:#181818;stroke-width:0.5;stroke-dasharray:5.0,5.0;" x1="2047" x2="2047" y1="86.2344" y2="650.3594"/><rect fill="#E2E2F0" height="30.2969" rx="2.5" ry="2.5" style="stroke:#181818;stroke-width:0.5;" width="273" x="5" y="54.9375"/><text fill="#000000" font-family="sans-serif" font-size="14" lengthAdjust="spacing" textLength="259" x="12" y="74.9326">AbstractAutowireCapableBeanFactory</text><rect fill="#E2E2F0" height="30.2969" rx="2.5" ry="2.5" style="stroke:#181818;stroke-width:0.5;" width="273" x="5" y="649.3594"/><text fill="#000000" font-family="sans-serif" font-size="14" lengthAdjust="spacing" textLength="259" x="12" y="669.3545">AbstractAutowireCapableBeanFactory</text><rect fill="#E2E2F0" height="30.2969" rx="2.5" ry="2.5" style="stroke:#181818;stroke-width:0.5;" width="295" x="288" y="54.9375"/><text fill="#000000" font-family="sans-serif" font-size="14" lengthAdjust="spacing" textLength="281" x="295" y="74.9326">AutowiredAnnotationBeanPostProcessor</text><rect fill="#E2E2F0" height="30.2969" rx="2.5" ry="2.5" style="stroke:#181818;stroke-width:0.5;" width="295" x="288" y="649.3594"/><text fill="#000000" font-family="sans-serif" font-size="14" lengthAdjust="spacing" textLength="281" x="295" y="669.3545">AutowiredAnnotationBeanPostProcessor</text><rect fill="#E2E2F0" height="30.2969" rx="2.5" ry="2.5" style="stroke:#181818;stroke-width:0.5;" width="136" x="593" y="54.9375"/><text fill="#000000" font-family="sans-serif" font-size="14" lengthAdjust="spacing" textLength="122" x="600" y="74.9326">InjectionMetadata</text><rect fill="#E2E2F0" height="30.2969" rx="2.5" ry="2.5" style="stroke:#181818;stroke-width:0.5;" width="136" x="593" y="649.3594"/><text fill="#000000" font-family="sans-serif" font-size="14" lengthAdjust="spacing" textLength="122" x="600" y="669.3545">InjectionMetadata</text><rect fill="#E2E2F0" height="30.2969" rx="2.5" ry="2.5" style="stroke:#181818;stroke-width:0.5;" width="172" x="739" y="54.9375"/><text fill="#000000" font-family="sans-serif" font-size="14" lengthAdjust="spacing" textLength="158" x="746" y="74.9326">AutowiredFieldElement</text><rect fill="#E2E2F0" height="30.2969" rx="2.5" ry="2.5" style="stroke:#181818;stroke-width:0.5;" width="172" x="739" y="649.3594"/><text fill="#000000" font-family="sans-serif" font-size="14" lengthAdjust="spacing" textLength="158" x="746" y="669.3545">AutowiredFieldElement</text><rect fill="#E2E2F0" height="30.2969" rx="2.5" ry="2.5" style="stroke:#181818;stroke-width:0.5;" width="201" x="921" y="54.9375"/><text fill="#000000" font-family="sans-serif" font-size="14" lengthAdjust="spacing" textLength="187" x="928" y="74.9326">DefaultListableBeanFactory</text><rect fill="#E2E2F0" height="30.2969" rx="2.5" ry="2.5" style="stroke:#181818;stroke-width:0.5;" width="201" x="921" y="649.3594"/><text fill="#000000" font-family="sans-serif" font-size="14" lengthAdjust="spacing" textLength="187" x="928" y="669.3545">DefaultListableBeanFactory</text><rect fill="#E2E2F0" height="30.2969" rx="2.5" ry="2.5" style="stroke:#181818;stroke-width:0.5;" width="157" x="1132" y="54.9375"/><text fill="#000000" font-family="sans-serif" font-size="14" lengthAdjust="spacing" textLength="143" x="1139" y="74.9326">AbstractBeanFactory</text><rect fill="#E2E2F0" height="30.2969" rx="2.5" ry="2.5" style="stroke:#181818;stroke-width:0.5;" width="157" x="1132" y="649.3594"/><text fill="#000000" font-family="sans-serif" font-size="14" lengthAdjust="spacing" textLength="143" x="1139" y="669.3545">AbstractBeanFactory</text><rect fill="#E2E2F0" height="30.2969" rx="2.5" ry="2.5" style="stroke:#181818;stroke-width:0.5;" width="213" x="1299" y="54.9375"/><text fill="#000000" font-family="sans-serif" font-size="14" lengthAdjust="spacing" textLength="199" x="1306" y="74.9326">StringValueResolver_Lambda</text><rect fill="#E2E2F0" height="30.2969" rx="2.5" ry="2.5" style="stroke:#181818;stroke-width:0.5;" width="213" x="1299" y="649.3594"/><text fill="#000000" font-family="sans-serif" font-size="14" lengthAdjust="spacing" textLength="199" x="1306" y="669.3545">StringValueResolver_Lambda</text><rect fill="#E2E2F0" height="30.2969" rx="2.5" ry="2.5" style="stroke:#181818;stroke-width:0.5;" width="247" x="1522" y="54.9375"/><text fill="#000000" font-family="sans-serif" font-size="14" lengthAdjust="spacing" textLength="233" x="1529" y="74.9326">PropertySourcesPropertyResolver</text><rect fill="#E2E2F0" height="30.2969" rx="2.5" ry="2.5" style="stroke:#181818;stroke-width:0.5;" width="247" x="1522" y="649.3594"/><text fill="#000000" font-family="sans-serif" font-size="14" lengthAdjust="spacing" textLength="233" x="1529" y="669.3545">PropertySourcesPropertyResolver</text><rect fill="#E2E2F0" height="30.2969" rx="2.5" ry="2.5" style="stroke:#181818;stroke-width:0.5;" width="198" x="1779" y="54.9375"/><text fill="#000000" font-family="sans-serif" font-size="14" lengthAdjust="spacing" textLength="184" x="1786" y="74.9326">PropertyPlaceholderHelper</text><rect fill="#E2E2F0" height="30.2969" rx="2.5" ry="2.5" style="stroke:#181818;stroke-width:0.5;" width="198" x="1779" y="649.3594"/><text fill="#000000" font-family="sans-serif" font-size="14" lengthAdjust="spacing" textLength="184" x="1786" y="669.3545">PropertyPlaceholderHelper</text><rect fill="#FFA500" height="30.2969" rx="2.5" ry="2.5" style="stroke:#181818;stroke-width:0.5;" width="121" x="1987" y="54.9375"/><text fill="#000000" font-family="sans-serif" font-size="14" lengthAdjust="spacing" textLength="107" x="1994" y="74.9326">PropertySource</text><rect fill="#FFA500" height="30.2969" rx="2.5" ry="2.5" style="stroke:#181818;stroke-width:0.5;" width="121" x="1987" y="649.3594"/><text fill="#000000" font-family="sans-serif" font-size="14" lengthAdjust="spacing" textLength="107" x="1994" y="669.3545">PropertySource</text><line style="stroke:#181818;stroke-width:1.0;" x1="141.5" x2="183.5" y1="117.3672" y2="117.3672"/><line style="stroke:#181818;stroke-width:1.0;" x1="183.5" x2="183.5" y1="117.3672" y2="130.3672"/><line style="stroke:#181818;stroke-width:1.0;" x1="142.5" x2="183.5" y1="130.3672" y2="130.3672"/><polygon fill="#181818" points="152.5,126.3672,142.5,130.3672,152.5,134.3672,148.5,130.3672" style="stroke:#181818;stroke-width:1.0;"/><text fill="#000000" font-family="sans-serif" font-size="13" lengthAdjust="spacing" textLength="92" x="148.5" y="112.3013">doCreateBean</text><line style="stroke:#181818;stroke-width:1.0;" x1="141.5" x2="183.5" y1="159.5" y2="159.5"/><line style="stroke:#181818;stroke-width:1.0;" x1="183.5" x2="183.5" y1="159.5" y2="172.5"/><line style="stroke:#181818;stroke-width:1.0;" x1="142.5" x2="183.5" y1="172.5" y2="172.5"/><polygon fill="#181818" points="152.5,168.5,142.5,172.5,152.5,176.5,148.5,172.5" style="stroke:#181818;stroke-width:1.0;"/><text fill="#000000" font-family="sans-serif" font-size="13" lengthAdjust="spacing" textLength="89" x="148.5" y="154.4341">populateBean</text><polygon fill="#181818" points="423.5,197.6328,433.5,201.6328,423.5,205.6328,427.5,201.6328" style="stroke:#181818;stroke-width:1.0;"/><line style="stroke:#181818;stroke-width:1.0;" x1="141.5" x2="429.5" y1="201.6328" y2="201.6328"/><text fill="#000000" font-family="sans-serif" font-size="13" lengthAdjust="spacing" textLength="143" x="148.5" y="196.5669">postProcessProperties</text><line style="stroke:#181818;stroke-width:1.0;" x1="435.5" x2="477.5" y1="230.7656" y2="230.7656"/><line style="stroke:#181818;stroke-width:1.0;" x1="477.5" x2="477.5" y1="230.7656" y2="243.7656"/><line style="stroke:#181818;stroke-width:1.0;" x1="436.5" x2="477.5" y1="243.7656" y2="243.7656"/><polygon fill="#181818" points="446.5,239.7656,436.5,243.7656,446.5,247.7656,442.5,243.7656" style="stroke:#181818;stroke-width:1.0;"/><text fill="#000000" font-family="sans-serif" font-size="13" lengthAdjust="spacing" textLength="150" x="442.5" y="225.6997">findAutowiringMetadata</text><polygon fill="#181818" points="649,268.8984,659,272.8984,649,276.8984,653,272.8984" style="stroke:#181818;stroke-width:1.0;"/><line style="stroke:#181818;stroke-width:1.0;" x1="435.5" x2="655" y1="272.8984" y2="272.8984"/><text fill="#000000" font-family="sans-serif" font-size="13" lengthAdjust="spacing" textLength="34" x="442.5" y="267.8325">inject</text><polygon fill="#181818" points="813,298.0313,823,302.0313,813,306.0313,817,302.0313" style="stroke:#181818;stroke-width:1.0;"/><line style="stroke:#181818;stroke-width:1.0;" x1="661" x2="819" y1="302.0313" y2="302.0313"/><text fill="#000000" font-family="sans-serif" font-size="13" lengthAdjust="spacing" textLength="34" x="668" y="296.9653">inject</text><line style="stroke:#181818;stroke-width:1.0;" x1="825" x2="867" y1="331.1641" y2="331.1641"/><line style="stroke:#181818;stroke-width:1.0;" x1="867" x2="867" y1="331.1641" y2="344.1641"/><line style="stroke:#181818;stroke-width:1.0;" x1="826" x2="867" y1="344.1641" y2="344.1641"/><polygon fill="#181818" points="836,340.1641,826,344.1641,836,348.1641,832,344.1641" style="stroke:#181818;stroke-width:1.0;"/><text fill="#000000" font-family="sans-serif" font-size="13" lengthAdjust="spacing" textLength="111" x="832" y="326.0981">resolveFieldValue</text><polygon fill="#181818" points="1009.5,369.2969,1019.5,373.2969,1009.5,377.2969,1013.5,373.2969" style="stroke:#181818;stroke-width:1.0;"/><line style="stroke:#181818;stroke-width:1.0;" x1="825" x2="1015.5" y1="373.2969" y2="373.2969"/><text fill="#000000" font-family="sans-serif" font-size="13" lengthAdjust="spacing" textLength="126" x="832" y="368.231">resolveDependency</text><line style="stroke:#181818;stroke-width:1.0;" x1="1021.5" x2="1063.5" y1="402.4297" y2="402.4297"/><line style="stroke:#181818;stroke-width:1.0;" x1="1063.5" x2="1063.5" y1="402.4297" y2="415.4297"/><line style="stroke:#181818;stroke-width:1.0;" x1="1022.5" x2="1063.5" y1="415.4297" y2="415.4297"/><polygon fill="#181818" points="1032.5,411.4297,1022.5,415.4297,1032.5,419.4297,1028.5,415.4297" style="stroke:#181818;stroke-width:1.0;"/><text fill="#000000" font-family="sans-serif" font-size="13" lengthAdjust="spacing" textLength="145" x="1028.5" y="397.3638">doResolveDependency</text><polygon fill="#181818" points="1198.5,440.5625,1208.5,444.5625,1198.5,448.5625,1202.5,444.5625" style="stroke:#181818;stroke-width:1.0;"/><line style="stroke:#181818;stroke-width:1.0;" x1="1021.5" x2="1204.5" y1="444.5625" y2="444.5625"/><text fill="#000000" font-family="sans-serif" font-size="13" lengthAdjust="spacing" textLength="151" x="1028.5" y="439.4966">resolveEmbeddedValue</text><polygon fill="#181818" points="1393.5,469.6953,1403.5,473.6953,1393.5,477.6953,1397.5,473.6953" style="stroke:#181818;stroke-width:1.0;"/><line style="stroke:#181818;stroke-width:1.0;" x1="1210.5" x2="1399.5" y1="473.6953" y2="473.6953"/><text fill="#000000" font-family="sans-serif" font-size="13" lengthAdjust="spacing" textLength="120" x="1217.5" y="468.6294">resolveStringValue</text><polygon fill="#181818" points="1633.5,498.8281,1643.5,502.8281,1633.5,506.8281,1637.5,502.8281" style="stroke:#181818;stroke-width:1.0;"/><line style="stroke:#181818;stroke-width:1.0;" x1="1405.5" x2="1639.5" y1="502.8281" y2="502.8281"/><text fill="#000000" font-family="sans-serif" font-size="13" lengthAdjust="spacing" textLength="183" x="1412.5" y="497.7622">resolveRequiredPlaceholders</text><line style="stroke:#181818;stroke-width:1.0;" x1="1645.5" x2="1687.5" y1="531.9609" y2="531.9609"/><line style="stroke:#181818;stroke-width:1.0;" x1="1687.5" x2="1687.5" y1="531.9609" y2="544.9609"/><line style="stroke:#181818;stroke-width:1.0;" x1="1646.5" x2="1687.5" y1="544.9609" y2="544.9609"/><polygon fill="#181818" points="1656.5,540.9609,1646.5,544.9609,1656.5,548.9609,1652.5,544.9609" style="stroke:#181818;stroke-width:1.0;"/><text fill="#000000" font-family="sans-serif" font-size="13" lengthAdjust="spacing" textLength="146" x="1652.5" y="526.895">doResolvePlaceholders</text><polygon fill="#181818" points="1866,570.0938,1876,574.0938,1866,578.0938,1870,574.0938" style="stroke:#181818;stroke-width:1.0;"/><line style="stroke:#181818;stroke-width:1.0;" x1="1645.5" x2="1872" y1="574.0938" y2="574.0938"/><text fill="#000000" font-family="sans-serif" font-size="13" lengthAdjust="spacing" textLength="128" x="1652.5" y="569.0278">replacePlaceholders</text><polygon fill="#181818" points="1656.5,599.2266,1646.5,603.2266,1656.5,607.2266,1652.5,603.2266" style="stroke:#181818;stroke-width:1.0;"/><line style="stroke:#181818;stroke-width:1.0;" x1="1650.5" x2="1877" y1="603.2266" y2="603.2266"/><text fill="#000000" font-family="sans-serif" font-size="13" lengthAdjust="spacing" textLength="154" x="1662.5" y="598.1606">getPropertyAsRawString</text><polygon fill="#181818" points="2035.5,628.3594,2045.5,632.3594,2035.5,636.3594,2039.5,632.3594" style="stroke:#181818;stroke-width:1.0;"/><line style="stroke:#181818;stroke-width:1.0;" x1="1645.5" x2="2041.5" y1="632.3594" y2="632.3594"/><text fill="#000000" font-family="sans-serif" font-size="13" lengthAdjust="spacing" textLength="75" x="1652.5" y="627.2935">getProperty</text><text fill="#888888" font-family="sans-serif" font-size="10" lengthAdjust="spacing" textLength="36" x="2076" y="14.2822">by LDP</text></g></svg>